<svg 
 xmlns="http://www.w3.org/2000/svg"
 xmlns:xlink="http://www.w3.org/1999/xlink"
 width="811px" height="249px">
<path fill-rule="evenodd"  fill="rgb(0, 0, 0)"
 d="M810.676,210.374 L810.676,247.875 L681.675,247.875 L681.675,45.672 L806.476,45.672 L806.476,83.173 L727.575,83.173 L727.575,125.173 L801.976,125.173 L801.976,162.374 L727.575,162.374 L727.575,210.374 L810.676,210.374 ZM611.676,150.474 L553.775,150.474 L539.375,202.374 L491.975,202.374 L553.775,0.172 L613.776,0.172 L676.476,202.374 L627.276,202.374 L611.676,150.474 ZM592.476,73.373 C588.876,61.373 585.276,46.373 582.275,34.373 L581.675,34.373 C578.675,46.373 575.675,61.673 572.375,73.373 L560.375,116.274 L605.76,116.274 L592.476,73.373 ZM565.976,248.375 L439.675,248.375 L439.675,46.172 L485.575,46.172 L485.575,209.974 L565.976,209.974 L565.976,248.375 ZM356.672,160.574 C316.673,160.574 293.273,130.375 293.273,91.976 C293.273,51.576 319.73,21.377 358.872,21.377 C400.272,21.377 422.871,52.376 422.871,89.576 C422.871,133.775 396.72,160.574 356.672,160.574 ZM358.72,45.576 C337.473,45.576 325.473,65.176 325.473,91.376 C325.473,117.775 337.873,136.375 358.272,136.375 C378.872,136.375 390.672,116.775 390.672,90.576 C390.672,66.376 379.72,45.576 358.72,45.576 ZM223.273,160.574 C183.274,160.574 159.874,130.375 159.874,91.976 C159.874,51.576 185.674,21.377 225.473,21.377 C266.873,21.377 289.472,52.376 289.472,89.576 C289.472,133.775 262.673,160.574 223.273,160.574 ZM224.673,45.576 C204.74,45.576 192.74,65.176 192.74,91.376 C192.74,117.775 204.474,136.375 224.873,136.375 C245.473,136.375 257.273,116.775 257.273,90.576 C257.273,66.376 245.673,45.576 224.673,45.576 ZM154.539,178.42 C154.539,215.708 125.539,247.708 63.873,247.708 C38.207,247.708 12.874,241.41 0.208,234.41 L10.541,192.42 C24.207,199.42 45.207,206.42 66.873,206.42 C90.206,206.42 102.539,196.375 102.539,181.709 C102.539,167.709 91.873,159.709 64.873,150.43 C27.541,137.43 3.208,116.376 3.208,83.710 C3.208,45.378 35.207,16.45 88.206,16.45 C113.539,16.45 132.206,21.378 145.539,27.378 L134.206,68.377 C125.206,64.44 109.206,57.711 87.206,57.711 C65.207,57.711 54.540,67.711 54.540,79.377 C54.540,93.710 67.207,100.43 96.206,111.43 C135.872,125.710 154.539,146.376 154.539,178.42 Z"/>
</svg>